<?xml version="1.0" encoding="UTF-8"?>
<svg viewBox="0 0 281.25003 281.25003" xmlns="http://www.w3.org/2000/svg">
 <g transform="matrix(.69155 0 0 .69155 -349.04 -64.1)">
  <!-- <path transform="matrix(1.3228 0 0 1.3228 254.08 -587.8)" d="m483.74 668.65a140.53 140.53 0 1 1 -281.07 -1e-5l140.53 1e-5z" fill="#7d5233" fill-rule="evenodd" stroke="#000" stroke-linecap="square"/> -->
  <!-- <path transform="matrix(1.3228 0 0 1.3228 254.08 -587.89)" d="m202.67 668.65a140.53 140.53 0 0 1 281.07 1e-5h-140.53z" fill="#5b93c5" fill-rule="evenodd" stroke="#000" stroke-linecap="square"/> -->
  <!-- <path transform="matrix(.96232 0 0 .96232 377.79 -347.01)" d="m483.74 668.65a140.53 140.53 0 1 1 -281.07 -1e-5l140.53 1e-5z" fill="#7d5233" fill-rule="evenodd" stroke="#000" stroke-linecap="square"/> -->
  <!-- <path transform="matrix(.96232 0 0 .96232 377.79 -347.07)" d="m202.67 668.65a140.53 140.53 0 0 1 281.07 1e-5h-140.53z" fill="#5b93c5" fill-rule="evenodd" stroke="#000" stroke-linecap="square"/> -->
  <path d="m699.35 287.39 17.431-0.09306" fill="none" stroke="#fff" stroke-linecap="square" stroke-width="1.5"/>
  <path d="m699.35 266.98 17.431-0.09305" fill="none" stroke="#fff" stroke-linecap="square" stroke-width="1.5"/>
  <path d="m695.91 277.2 24.301-0.12975" fill="none" stroke="#fff" stroke-linecap="square" stroke-width="2.0912"/>
  <path d="m682.68913,282.92115-.09271-10.6871 1.37495-.01192 .0927,10.6871-1.37494.01192zm6.51708.13881c-.79685.0069-1.38407-.43854-1.76166-1.33635s-.57446-2.27634-.59059-4.13565c-.0318-3.66653.7205-5.50645 2.2569-5.51979 .79163-.00685 1.38265.42684 1.77307,1.30108s.5939,2.26708.61048,4.17845c.0159,1.83327-.15447,3.20849-.5111,4.12568s-.94902,1.37939-1.7771,1.38658zm.87419-5.49999c-.01432-1.65097-.09567-2.77271-.24404-3.3652s-.38141-.88734-.69911-.88459c-.30727.00268-.53418.26506-.68069.78718s-.21199,1.6816-.1964,3.4784c.02444,2.8176.34133,4.22376.95069,4.21847 .60414-.00524.89399-1.41666.86955-4.23426z" fill="#fff"/>
  <path d="m724.72101,282.92116-.0927-10.6871 1.37495-.01193 .0927,10.6871-1.37495.01193zm6.51707.13878c-.79685.00692-1.38407-.43853-1.76166-1.33633s-.57445-2.27635-.59058-4.13565c-.03181-3.66652.72049-5.50645 2.2569-5.51978 .79163-.00686 1.38265.42683 1.77307,1.30107s.59389,2.26708.61048,4.17846c.0159,1.83326-.15447,3.20849-.51111,4.12568s-.94901,1.37937-1.7771,1.38655zm.87421-5.49997c-.01433-1.65097-.09568-2.7727-.24405-3.3652s-.38141-.88734-.6991-.8846c-.30729.00268-.53419.26508-.6807.78719s-.21199,1.6816-.1964,3.4784c.02444,2.81761.34134,4.22376.95069,4.21848 .60414-.00524.89399-1.41666.86956-4.23427z" fill="#fff"/>
  <path d="m708.04 110.57c-100.92 0-182.81 81.885-182.81 182.81 0 48.811 19.158 93.177 50.362 125.98h264.93c31.205-32.8 50.362-77.166 50.362-125.98 0-100.92-81.932-182.81-182.85-182.81zm202.87 185.47c0 111.97-90.875 202.85-202.85 202.85s-202.85-90.875-202.85-202.85 90.875-202.85 202.85-202.85 202.85 90.875 202.85 202.85z" fill="#5b6066" fill-rule="evenodd" stroke="#000" stroke-linecap="square"/>
  <path d="m708.06 160.42c-74.632 0-135.22 60.586-135.22 135.22 0 54.525 32.347 101.53 78.875 122.91h1.125l36.281-64.25h37.469l36.688 64.25h1.125c46.528-21.373 78.875-68.381 78.875-122.91 0-74.632-60.586-135.22-135.22-135.22z" fill="none" stroke="#000" stroke-linecap="square"/>
  <path d="m574.74 296.46h266.65" fill="none" stroke="#fff" stroke-width="4"/>
  <path d="m662.4 335.3h91.156m16.517 0h66.848m-257.72 0h66.367" fill="none" stroke="#fff" stroke-width="1.933"/>
  <path d="m754.33 315.83h87.054m-164.81 0h63.108m-164.95 0h87.197" fill="none" stroke="#fff" stroke-width="2"/>
  <path d="m795.22 384.3-85.699-87.196 128.18 33.783m-217.62 53.413 85.699-87.196-128.18 33.783" fill="none" stroke="#fff" stroke-width="2"/>
  <path transform="translate(247.61 184.36)" d="m494.35 137.35v-12.023h1.5469v12.023h-1.5469zm7.3301 0.21972c-0.89649 0-1.5527-0.50683-1.9688-1.5205s-0.62402-2.5664-0.62402-4.6582c0-4.125 0.86425-6.1875 2.5928-6.1875 0.89062 1e-5 1.5513 0.49367 1.9819 1.481s0.64599 2.5562 0.646 4.7065c-1e-5 2.0625-0.20508 3.6079-0.61523 4.6362s-1.0811 1.5425-2.0127 1.5425zm1.0371-6.1787c0-1.8574-0.08057-3.1201-0.2417-3.7881s-0.42041-1.002-0.77783-1.002c-0.34571 1e-5 -0.60352 0.29298-0.77344 0.87891s-0.25488 1.8897-0.25488 3.9111c0 3.1699 0.34277 4.7549 1.0283 4.7549 0.67968 0 1.0195-1.585 1.0195-4.7549z" fill="#fff"/>
  <g transform="translate(264.55 203.45)" fill-rule="evenodd" stroke="#000" stroke-linecap="square">
   <path d="m442.03 95.406c-1.6742 8.1376-0.76269 23.356-5.0938 24.188s-4.3214-0.30155-9.9688-4.2188-11.332-9.9112-17.031-18.094h-5.7812c10.355 16.408 20.647 26.062 30.875 29.406v23.525h16.938v-23.837h0.03125v0.125c10.353-3.5917 20.635-13.482 30.875-29.219h-5.75c-5.5042 7.6255-11.044 13.482-16.594 17.469s-6.5907 5.5821-10.438 4.8438-3.5625-12.824-4.625-21.219c-0.13376-1.0568-0.28156-2.0589-0.46875-2.9688h-2.9688z" fill="#a06b4f" stroke-width=".5"/>
   <path d="m349.93 89.392h58.849a3.762 3.762 0 0 1 3.762 3.762 3.762 3.762 0 0 1 -3.762 3.762h-58.849a3.762 3.762 0 0 1 -3.762 -3.762 3.762 3.762 0 0 1 3.762 -3.762" fill="#fc9258" stroke-width=".75"/>
   <path d="m478.24 89.392h58.849a3.762 3.762 0 0 1 3.762 3.762 3.762 3.762 0 0 1 -3.762 3.762h-58.849a3.762 3.762 0 0 1 -3.762 -3.762 3.762 3.762 0 0 1 3.762 -3.762" fill="#fc9258" stroke-width=".75"/>
   <path transform="translate(191.72 -202.77)" d="m255.55 295.92a3.762 3.762 0 1 1 -7.5241 0 3.762 3.762 0 1 1 7.5241 0z" fill="#fc9258" stroke-width=".75"/>
  </g>
  <path d="m657.65 412.51c2.0042-3.4579 10.125-17.77 18.046-31.805l14.402-25.518 17.968 0.04682 17.968 0.04676 18.012 31.758 18.012 31.758h-108.05l3.6441-6.2871z" fill="#5b6066"/>
  <path d="m741.34 458.36c0 18.369-14.908 33.277-33.277 33.277s-33.277-14.908-33.277-33.277 14.908-33.277 33.277-33.277 33.277 14.908 33.277 33.277zm-6.3786 0c0 14.848-12.051 26.899-26.899 26.899s-26.899-12.051-26.899-26.899 12.051-26.899 26.899-26.899 26.899 12.051 26.899 26.899z" fill="#3f3e44" fill-rule="evenodd" stroke="#000" stroke-linecap="square" stroke-width=".70737"/>
  <path d="m548.95 296.19h20" fill="none" stroke="#fff" stroke-linecap="round" stroke-width="8"/>
  <path d="m847.5 296.19h20" fill="none" stroke="#fff" stroke-linecap="round" stroke-width="8"/>
  <path d="m583.3 231.59-17.32-10" fill="none" stroke="#fff" stroke-linecap="round" stroke-width="8"/>
  <path d="m832.2 231.59 17.32-10" fill="none" stroke="#fff" stroke-linecap="round" stroke-width="8"/>
  <path d="m708.27 136.08v20" fill="none" stroke="#fff" stroke-linecap="square" stroke-width="8"/>
  <path d="m791.67 160.23-10 17.32" fill="none" stroke="#fff" stroke-linecap="round" stroke-width="8"/>
  <path d="m623.38 160.23 10 17.32" fill="none" stroke="#fff" stroke-linecap="round" stroke-width="8"/>
  <path transform="translate(170.71 184.36)" d="m494.35 137.35v-12.023h1.5469v12.023h-1.5469zm7.3301 0.21972c-0.89649 0-1.5527-0.50683-1.9688-1.5205s-0.62402-2.5664-0.62402-4.6582c0-4.125 0.86425-6.1875 2.5928-6.1875 0.89062 1e-5 1.5513 0.49367 1.9819 1.481s0.64599 2.5562 0.646 4.7065c-1e-5 2.0625-0.20508 3.6079-0.61523 4.6362s-1.0811 1.5425-2.0127 1.5425zm1.0371-6.1787c0-1.8574-0.08057-3.1201-0.2417-3.7881s-0.42041-1.002-0.77783-1.002c-0.34571 1e-5 -0.60352 0.29298-0.77344 0.87891s-0.25488 1.8897-0.25488 3.9111c0 3.1699 0.34277 4.7549 1.0283 4.7549 0.67968 0 1.0195-1.585 1.0195-4.7549z" fill="#fff"/>
  <path transform="translate(263.6 203.62)" d="m492.46 137.35v-0.23731c2.1094-3.4922 3.1641-6.2461 3.1641-8.2617-1e-5 -0.60936-0.1421-1.0972-0.42627-1.4634s-0.66358-0.5493-1.1382-0.54931c-0.33398 1e-5 -0.78515 0.13184-1.3535 0.39551v-1.5996c0.62109-0.2871 1.2041-0.43066 1.749-0.43067 0.84961 1e-5 1.5205 0.30031 2.0127 0.90088s0.73827 1.4224 0.73828 2.4653c-1e-5 0.90236-0.19337 1.8838-0.58008 2.9443s-1.0459 2.4961-1.9775 4.3066h2.8125v1.5293h-5.001zm9.2197 0.21972c-0.89649 0-1.5527-0.50683-1.9688-1.5205s-0.62402-2.5664-0.62402-4.6582c0-4.125 0.86425-6.1875 2.5928-6.1875 0.89062 1e-5 1.5513 0.49367 1.9819 1.481s0.64599 2.5562 0.646 4.7065c-1e-5 2.0625-0.20508 3.6079-0.61523 4.6362s-1.0811 1.5425-2.0127 1.5425zm1.0371-6.1787c0-1.8574-0.08057-3.1201-0.2417-3.7881s-0.42041-1.002-0.77783-1.002c-0.34571 1e-5 -0.60352 0.29298-0.77344 0.87891s-0.25488 1.8897-0.25488 3.9111c0 3.1699 0.34277 4.7549 1.0283 4.7549 0.67968 0 1.0195-1.585 1.0195-4.7549z" fill="#fff"/>
  <path transform="translate(156.1 203.57)" d="m492.46 137.35v-0.23731c2.1094-3.4922 3.1641-6.2461 3.1641-8.2617-1e-5 -0.60936-0.1421-1.0972-0.42627-1.4634s-0.66358-0.5493-1.1382-0.54931c-0.33398 1e-5 -0.78515 0.13184-1.3535 0.39551v-1.5996c0.62109-0.2871 1.2041-0.43066 1.749-0.43067 0.84961 1e-5 1.5205 0.30031 2.0127 0.90088s0.73827 1.4224 0.73828 2.4653c-1e-5 0.90236-0.19337 1.8838-0.58008 2.9443s-1.0459 2.4961-1.9775 4.3066h2.8125v1.5293h-5.001zm9.2197 0.21972c-0.89649 0-1.5527-0.50683-1.9688-1.5205s-0.62402-2.5664-0.62402-4.6582c0-4.125 0.86425-6.1875 2.5928-6.1875 0.89062 1e-5 1.5513 0.49367 1.9819 1.481s0.64599 2.5562 0.646 4.7065c-1e-5 2.0625-0.20508 3.6079-0.61523 4.6362s-1.0811 1.5425-2.0127 1.5425zm1.0371-6.1787c0-1.8574-0.08057-3.1201-0.2417-3.7881s-0.42041-1.002-0.77783-1.002c-0.34571 1e-5 -0.60352 0.29298-0.77344 0.87891s-0.25488 1.8897-0.25488 3.9111c0 3.1699 0.34277 4.7549 1.0283 4.7549 0.67968 0 1.0195-1.585 1.0195-4.7549z" fill="#fff"/>
  <path d="m679.45 140.48 3.473 19.696" fill="none" stroke="#fff" stroke-linecap="square" stroke-width="3"/>
  <path d="m737.09 140.48-3.473 19.696" fill="none" stroke="#fff" stroke-linecap="square" stroke-width="3"/>
  <path d="m651.62 148.54 6.8404 18.794" fill="none" stroke="#fff" stroke-linecap="square" stroke-width="3"/>
  <path d="m763.96 148.54-6.8404 18.794" fill="none" stroke="#fff" stroke-linecap="square" stroke-width="3"/>
  <path d="m686.02 115.18h43.951l-12.651 45.444h-5.3751v-42.074h-8.1554l0.55605 42.074h-4.8191l-13.506-45.444z" fill="#ff4a23" fill-rule="evenodd" stroke="#000" stroke-width=".5"/>
 </g>
</svg>
